<svg width="39" height="39" viewBox="0 0 39 39" fill="none" xmlns="http://www.w3.org/2000/svg">
<g clip-path="url(#clip0_14_97)">
<path d="M19.3246 3.45557C11.4574 3.45557 5.30586 10.1263 5.82986 17.8768C11.9647 17.876 17.2008 14.0722 19.3389 8.69959C21.4738 14.0635 26.6972 17.8633 32.8185 17.876C33.3433 10.1263 27.1918 3.45557 19.3246 3.45557Z" fill="#F55376"/>
<path d="M29.4013 32.0718H9.24853C4.28953 32.0718 0.269775 28.052 0.269775 23.093C0.269775 18.134 4.28953 14.1143 9.24773 14.1143H29.4005C34.3595 14.1151 38.3793 18.1348 38.3793 23.093C38.3793 28.052 34.3595 32.0718 29.4013 32.0718Z" fill="#F55376"/>
<path d="M32.0277 24.8921H6.62134C5.30577 24.8921 4.2395 23.8258 4.2395 22.5103C4.2395 21.1947 5.30577 20.1284 6.62134 20.1284H32.0277C33.3432 20.1284 34.4095 21.1947 34.4095 22.5103C34.4095 23.8258 33.3432 24.8921 32.0277 24.8921Z" fill="#FAC8D5"/>
<path d="M32.7517 18.5906C32.7692 18.4437 32.7779 18.2984 32.7906 18.1523C32.1896 11.3387 26.4676 5.8374 19.3245 5.8374C12.1813 5.8374 6.45936 11.3387 5.85754 18.1523C5.87025 18.2984 5.87898 18.4437 5.89645 18.5906L5.96235 19.1376C11.3945 18.2913 16.1408 14.7614 19.3245 9.65153C22.5082 14.7622 27.2544 18.2913 32.6866 19.1376L32.7517 18.5906Z" fill="#EB0000"/>
<path d="M19.3246 35.2135C12.8015 35.2135 7.30658 30.3386 6.52931 23.8624L5.89653 20.9732C4.93109 12.9226 11.2168 5.8374 19.3246 5.8374C27.4324 5.8374 33.718 12.9226 32.7518 20.9724L32.119 23.8616C31.3426 30.3386 25.8476 35.2135 19.3246 35.2135Z" fill="#FAC8D5"/>
<path d="M19.3246 5.8374C11.4574 5.8374 5.30586 12.5081 5.82986 20.2587C11.9647 20.2579 17.2008 16.4541 19.3389 11.0814C21.4738 16.4453 26.6972 20.2452 32.8185 20.2579C33.3433 12.5081 27.1918 5.8374 19.3246 5.8374Z" fill="#EB0000"/>
</g>
<defs>
<clipPath id="clip0_14_97">
<rect width="38.1095" height="38.1095" fill="white" transform="translate(0.269775 0.279785)"/>
</clipPath>
</defs>
</svg>
